HIERARCHY
ROOT Hips
{
 OFFSET 0.000000 0.000000 0.000000
 CHANNELS 6 Xposition Yposition Zposition Yrotation Xrotation Zrotation
 JOINT Chest
 {
  OFFSET 0.000000 14.634200 -0.016200
  CHANNELS 3 Yrotation Xrotation Zrotation
  JOINT Chest2
  {
   OFFSET 0.000000 8.932900 0.033000
   CHANNELS 3 Yrotation Xrotation Zrotation
   JOINT Chest3
   {
    OFFSET 0.000000 8.892300 0.000000
    CHANNELS 3 Yrotation Xrotation Zrotation
    JOINT Chest4
    {
     OFFSET 0.000000 8.883200 0.000000
     CHANNELS 3 Yrotation Xrotation Zrotation
     JOINT Neck
     {
      OFFSET 0.000000 13.173600 0.000000
      CHANNELS 3 Yrotation Xrotation Zrotation
      JOINT Head
      {
       OFFSET 0.000000 8.324600 0.069800
       CHANNELS 3 Yrotation Xrotation Zrotation
       End Site
       {
        OFFSET 0.000000 15.692400 0.036900
       }
      }
     }
     JOINT RightCollar
     {
      OFFSET -2.619200 8.772200 0.000000
      CHANNELS 3 Yrotation Xrotation Zrotation
      JOINT RightShoulder
      {
       OFFSET -12.922000 0.000000 0.000000
       CHANNELS 3 Yrotation Xrotation Zrotation
       JOINT RightElbow
       {
        OFFSET 0.000000 -27.880900 0.000000
        CHANNELS 3 Yrotation Xrotation Zrotation
        JOINT RightWrist
        {
         OFFSET 0.000000 -22.758700 0.008200
         CHANNELS 3 Yrotation Xrotation Zrotation
         End Site
         {
          OFFSET 0.000000 -16.965000 0.000000
         }
        }
       }
      }
     }
     JOINT LeftCollar
     {
      OFFSET 2.619200 8.772200 0.000000
      CHANNELS 3 Yrotation Xrotation Zrotation
      JOINT LeftShoulder
      {
       OFFSET 12.922000 0.000000 0.000000
       CHANNELS 3 Yrotation Xrotation Zrotation
       JOINT LeftElbow
       {
        OFFSET 0.000000 -27.880900 0.000000
        CHANNELS 3 Yrotation Xrotation Zrotation
        JOINT LeftWrist
        {
         OFFSET 0.000000 -22.758700 0.008200
         CHANNELS 3 Yrotation Xrotation Zrotation
         End Site
         {
          OFFSET 0.000000 -16.965000 0.000000
         }
        }
       }
      }
     }
    }
   }
  }
 }
 JOINT RightHip
 {
  OFFSET -12.026800 0.080100 0.008100
  CHANNELS 3 Yrotation Xrotation Zrotation
  JOINT RightKnee
  {
   OFFSET 0.000000 -42.600800 -0.000200
   CHANNELS 3 Yrotation Xrotation Zrotation
   JOINT RightAnkle
   {
    OFFSET 0.000000 -38.219300 0.054300
    CHANNELS 3 Yrotation Xrotation Zrotation
    JOINT RightToe
    {
     OFFSET 0.000000 -9.685800 15.804700
     CHANNELS 3 Yrotation Xrotation Zrotation
     JOINT Prop1
     {
      OFFSET 12.026800 0.000000 -15.866900
      CHANNELS 3 Yrotation Xrotation Zrotation
      End Site
      {
       OFFSET 0.000000 -168.959000 -0.123500
      }
     }
     End Site
     {
      OFFSET 0.000000 -1.422300 5.761700
     }
    }
   }
  }
 }
 JOINT LeftHip
 {
  OFFSET 12.026800 0.080100 0.008100
  CHANNELS 3 Yrotation Xrotation Zrotation
  JOINT LeftKnee
  {
   OFFSET 0.000000 -42.600800 -0.000200
   CHANNELS 3 Yrotation Xrotation Zrotation
   JOINT LeftAnkle
   {
    OFFSET 0.000000 -38.219300 0.054300
    CHANNELS 3 Yrotation Xrotation Zrotation
    JOINT LeftToe
    {
     OFFSET 0.000000 -9.685800 15.804700
     CHANNELS 3 Yrotation Xrotation Zrotation
     End Site
     {
      OFFSET 0.000000 -1.422300 5.761700
     }
    }
   }
  }
 }
}
MOTION
Frames: 8
Frame Time: 0.008333
0.000000 90.254400 0.000000 0.000000 -5.767877 0.000000 0.000000 11.653817 0.000000 0.000000 -5.885947 0.000000 0.000000 -0.000000 0.000000 0.000000 -0.000000 0.000000 0.000000 12.528835 0.000000 0.000000 0.711642 0.000000 0.000000 -0.000000 0.000000 0.000000 0.000000 -90.000000 0.000000 -2.309062 0.000000 0.000000 2.309062 0.000000 0.000000 -0.000000 0.000000 0.000000 -0.000000 90.000000 0.000000 -2.309062 0.000000 0.000000 2.309062 0.000000 0.000000 8.520406 0.000000 0.000000 1.905762 0.000000 -0.000000 -4.658285 0.000000 0.000000 -0.000000 0.000000 -179.973077 -0.652024 178.576853 0.000000 8.520406 0.000000 0.000000 1.905762 0.000000 -0.000000 -4.658285 0.000000 0.000000 -0.000000 0.000000
-5.814738 151.941435 10.130265 170.104325 -20.297544 -0.330015 1.382661 19.631850 0.451538 0.166870 2.394132 0.072907 0.274814 3.937841 0.122039 1.278398 16.946967 0.675335 -1.440638 14.135204 0.284785 -1.555100 -10.873606 0.605372 6.800496 -0.898332 -0.995902 20.041195 -32.175891 -12.566169 29.656736 -41.021706 -9.645170 9.188454 -9.979792 -43.316450 -11.713769 -0.355100 -1.131214 -3.150247 -32.095101 7.912138 -16.184351 -53.607612 -0.824155 -9.302039 -0.723699 8.771659 -2.633884 -52.239330 13.540767 -40.841868 81.315116 -46.202650 -1.797272 -10.675497 4.317902 0.115804 -0.243161 0.072673 180.000000 -0.000000 180.000000 22.117122 -47.407636 -21.858074 70.656801 75.805740 80.833146 4.868892 -10.124304 -7.030035 0.158642 -1.707214 1.949055
-7.152516 144.766511 13.108403 170.088017 -20.310390 -0.457317 1.446933 19.642290 0.596029 0.165876 2.393975 0.071481 0.273852 3.939247 0.121469 1.273873 16.949621 0.674804 -1.437414 14.140984 0.275076 -1.554040 -10.879954 0.608955 6.804623 -0.905935 -1.000231 20.033922 -32.173124 -12.563303 29.647235 -41.030799 -9.625813 9.191980 -10.032332 -43.356658 -11.713094 -0.360126 -1.126456 -3.136409 -32.098130 7.903550 -16.112531 -53.604217 -0.886110 -9.285819 -0.821961 8.812353 -2.799995 -52.236161 13.770876 -40.970111 81.321527 -46.329381 -1.747077 -10.766061 4.338161 0.061129 -0.155632 0.037447 180.000000 -0.000000 180.000000 21.988965 -47.437682 -21.660523 70.621520 75.808272 80.797135 4.946098 -10.030369 -6.989844 0.104736 0.144488 0.064225
-8.257140 138.857025 15.562832 170.088393 -20.312086 -0.556662 1.482061 19.644680 0.701615 0.165522 2.393975 0.071467 0.273947 3.936789 0.121256 1.270343 16.953245 0.676535 -1.438128 14.155881 0.258866 -1.551273 -10.882432 0.605876 6.801616 -0.919920 -1.000989 20.041268 -32.163362 -12.559064 29.640928 -41.026881 -9.619149 9.186408 -10.088962 -43.397473 -11.710281 -0.370924 -1.119534 -3.127329 -32.093813 7.891438 -16.088762 -53.601767 -0.908101 -9.258423 -0.889776 8.847312 -2.936646 -52.244453 13.943530 -41.071337 81.330477 -46.431130 -1.715021 -10.839752 4.354641 0.023797 -0.085264 0.014578 180.000000 -0.000000 180.000000 21.885754 -47.466314 -21.517138 70.574465 75.810801 80.749234 4.997121 -9.952485 -6.961213 0.045284 0.075459 0.027764
-9.061256 134.588971 17.334889 170.098691 -20.312154 -0.606811 1.488810 19.645585 0.752329 0.165382 2.394217 0.071554 0.273786 3.937276 0.121432 1.269877 16.948798 0.676420 -1.439704 14.165352 0.251463 -1.551152 -10.854885 0.584916 6.801707 -0.924406 -0.999167 20.032241 -32.162513 -12.546985 29.651729 -41.021720 -9.620945 9.182574 -10.113595 -43.417335 -11.709102 -0.371119 -1.119842 -3.125419 -32.092864 7.888137 -16.065825 -53.600566 -0.926156 -9.230288 -0.956539 8.883093 -3.011949 -52.252434 14.028016 -41.150382 81.336806 -46.510471 -1.707713 -10.873682 4.358589 0.012628 -0.051621 0.007738 180.000000 -0.000000 180.000000 21.826929 -47.478617 -21.448290 70.538063 75.812210 80.712973 5.011740 -9.913542 -6.952233 0.026499 0.041486 0.016243
-9.565180 131.893605 18.454648 170.105050 -20.314181 -0.653768 1.499017 19.642098 0.799357 0.164278 2.392233 0.074183 0.274886 3.939063 0.119266 1.268859 16.950406 0.678363 -1.441196 14.174087 0.245640 -1.550934 -10.842327 0.576595 6.807317 -0.927748 -0.998237 20.026956 -32.157212 -12.545381 29.641449 -41.021607 -9.609039 9.175944 -10.180494 -43.475443 -11.706931 -0.369871 -1.120918 -3.126928 -32.090213 7.888014 -16.040734 -53.599063 -0.944425 -9.223282 -0.993457 8.901506 -3.079096 -52.254177 14.107575 -41.187489 81.339077 -46.546396 -1.700431 -10.901561 4.361389 0.002358 -0.019762 0.001445 180.000000 -0.000000 180.000000 21.775471 -47.488116 -21.382281 70.501370 75.814178 80.678919 5.027453 -9.881561 -6.943974 0.007964 0.014695 0.004881
-9.846862 130.411160 19.070081 170.105134 -20.315409 -0.660448 1.499352 19.642081 0.809304 0.165911 2.390994 0.071439 0.275142 3.936519 0.121472 1.269359 16.951987 0.676420 -1.443732 14.179636 0.243805 -1.550069 -10.825205 0.565647 6.810713 -0.926893 -0.998479 20.020941 -32.155867 -12.543268 29.626670 -41.024306 -9.590372 9.177906 -10.230903 -43.532602 -11.710862 -0.371983 -1.118180 -3.110765 -32.095576 7.882621 -16.026557 -53.587881 -0.969443 -9.182422 -1.095294 8.958184 -3.082797 -52.258294 14.118674 -41.219165 81.342019 -46.577764 -1.702100 -10.907731 4.367658 0.000683 -0.012666 0.000418 180.000000 -0.000000 180.000000 21.769624 -47.486513 -21.370751 70.484227 75.826052 80.660489 5.041290 -9.873105 -6.939580 0.005186 0.006774 0.003178
-9.980588 129.705391 19.363218 170.109865 -20.317662 -0.666684 1.497489 19.640287 0.814043 0.165225 2.393900 0.071918 0.278634 3.935666 0.121120 1.270153 16.951921 0.677510 -1.447749 14.188664 0.239658 -1.548988 -10.813019 0.559658 6.807827 -0.930275 -0.995631 20.025276 -32.153845 -12.539925 29.595372 -41.033668 -9.567845 9.202326 -10.231853 -43.551190 -11.718144 -0.374154 -1.114217 -3.107817 -32.098958 7.881414 -16.016504 -53.579570 -0.979518 -9.120871 -1.210706 9.023461 -3.085834 -52.257693 14.121898 -41.237496 81.343916 -46.591714 -1.700772 -10.913368 4.371426 -0.001018 -0.009451 -0.000624 180.000000 -0.000000 180.000000 21.760842 -47.485359 -21.362357 70.473248 75.828578 80.651338 5.035532 -9.867048 -6.934951 0.002571 0.003189 0.001576
